<?xml version="1.0" encoding="utf-8"?>
<!-- Generator: Adobe Illustrator 16.2.0, SVG Export Plug-In . SVG Version: 6.00 Build 0)  -->
<!DOCTYPE svg PUBLIC "-//W3C//DTD SVG 1.1//EN" "http://www.w3.org/Graphics/SVG/1.1/DTD/svg11.dtd">
<svg version="1.1" id="Layer_1" xmlns="http://www.w3.org/2000/svg" xmlns:xlink="http://www.w3.org/1999/xlink" x="0px" y="0px"
	 width="421.667px" height="64.876px" viewBox="0 0 421.667 64.876" enable-background="new 0 0 421.667 64.876"
	 xml:space="preserve">
<path fill="#42B399" d="M90.015,42.226c0-12.501,10.065-22.648,23.623-22.648c13.476,0,23.461,9.985,23.461,22.648
	c0,12.502-10.066,22.65-23.623,22.65C100,64.876,90.015,54.89,90.015,42.226 M124.922,42.226c0-6.412-4.627-12.014-11.446-12.014
	c-7.063,0-11.284,5.44-11.284,12.014c0,6.414,4.626,12.016,11.446,12.016C120.701,54.242,124.922,48.802,124.922,42.226"/>
<path fill="#42B399" d="M139.861,42.226c0-12.419,9.498-22.648,22.812-22.648c7.31,0,12.104,2.452,15.934,6.207
	c0.773,0.756,0.796,1.992,0.036,2.76l-4.616,4.668c-0.701,0.708-1.831,0.774-2.599,0.137c-2.273-1.885-4.757-3.138-8.837-3.138
	c-6.169,0-10.553,5.44-10.553,12.014c0,6.658,4.302,12.016,11.041,12.016c3.538,0,6.127-1.305,8.679-3.455
	c0.763-0.645,1.899-0.572,2.6,0.137l4.606,4.658c0.757,0.766,0.735,1.998-0.034,2.756c-3.93,3.875-8.648,6.539-16.42,6.539
	C149.44,64.876,139.861,54.81,139.861,42.226"/>
<path fill="#42B399" d="M186.298,51.562V32.878c0-1.069-0.867-1.935-1.936-1.935h-1.325c-1.068,0-1.935-0.867-1.935-1.937v-6.681
	c0-1.07,0.867-1.936,1.935-1.936h1.325c1.069,0,1.936-0.867,1.936-1.935v-7.251c0-1.069,0.866-1.936,1.936-1.936h8.467
	c1.07,0,1.936,0.867,1.936,1.936v7.251c0,1.068,0.867,1.935,1.935,1.935h6.358c1.069,0,1.935,0.866,1.935,1.936v6.681
	c0,1.07-0.866,1.937-1.935,1.937h-6.358c-1.068,0-1.935,0.866-1.935,1.935v16.654c0,2.842,1.218,4.223,3.977,4.223
	c1.264,0,2.452-0.176,3.564-0.5c1.259-0.365,2.525,0.531,2.525,1.844v5.871c0,0.725-0.402,1.395-1.048,1.725
	c-2.36,1.203-5.098,1.938-8.694,1.938C191.411,64.632,186.298,61.628,186.298,51.562"/>
<path fill="#42B399" d="M210.572,42.226c0-12.501,10.065-22.648,23.623-22.648c13.475,0,23.461,9.985,23.461,22.648
	c0,12.502-10.065,22.65-23.623,22.65C220.557,64.876,210.572,54.89,210.572,42.226 M245.479,42.226
	c0-6.412-4.627-12.014-11.446-12.014c-7.063,0-11.284,5.44-11.284,12.014c0,6.414,4.626,12.016,11.446,12.016
	C241.258,54.242,245.479,48.802,245.479,42.226"/>
<path fill="#42B399" d="M264.464,20.39h8.467c1.069,0,1.937,0.866,1.937,1.936v4.034c0,0.668,0.881,0.885,1.208,0.303
	c2.271-4.039,5.564-6.696,10.617-7.061c1.113-0.08,2.057,0.819,2.057,1.934v10.95H288.1c-8.199,0-13.232,4.951-13.232,15.342v14.139
	c0,1.07-0.867,1.936-1.937,1.936h-8.467c-1.069,0-1.937-0.865-1.937-1.936V22.326C262.528,21.256,263.395,20.39,264.464,20.39"/>
<path fill="#FFFFFF" d="M294.59,46.652c-4.944,0-8.99,4.047-8.99,8.99c0,4.945,4.046,8.99,8.99,8.99c4.943,0,8.99-4.045,8.99-8.99
	C303.581,50.699,299.534,46.652,294.59,46.652"/>
<path fill="#FFFFFF" d="M361.582,20.39c-5.091,0-9.145,1.83-12.587,5.225c-0.738,0.728-1.935,0.594-2.557-0.236
	c-2.391-3.195-6.161-4.989-10.917-4.989c-4.276,0-7.354,1.587-9.77,3.764c-1.088,0.98-2.821,0.207-2.821-1.258V22.88
	c0-0.935-0.758-1.693-1.692-1.693h-8.728c-0.935,0-1.693,0.758-1.693,1.693v39.329c0,0.936,0.759,1.693,1.693,1.693h8.728
	c0.935,0,1.692-0.758,1.692-1.693V40.074c0-5.738,2.79-8.687,7.332-8.687c4.543,0,7.092,2.949,7.092,8.687v22.135
	c0,0.936,0.759,1.693,1.694,1.693h8.727c0.936,0,1.693-0.758,1.693-1.693V40.074c0-5.738,2.789-8.687,7.332-8.687
	s7.093,2.949,7.093,8.687v22.135c0,0.936,0.758,1.693,1.693,1.693h8.726c0.937,0,1.694-0.758,1.694-1.693V36.089
	C376.006,25.809,370.587,20.39,361.582,20.39"/>
<path fill="#FFFFFF" d="M407.164,20.39c-4.265,0-7.296,1.577-9.687,3.742c-1.087,0.987-2.826,0.216-2.826-1.252
	c0-0.935-0.759-1.693-1.693-1.693h-8.728c-0.934,0-1.692,0.758-1.692,1.693v39.329c0,0.936,0.759,1.693,1.692,1.693h8.728
	c0.935,0,1.693-0.758,1.693-1.693V40.074c0-5.738,2.948-8.687,7.571-8.687c4.622,0,7.332,2.949,7.332,8.687v22.135
	c0,0.936,0.757,1.693,1.693,1.693h8.727c0.936,0,1.693-0.758,1.693-1.693V36.248C421.667,26.447,416.328,20.39,407.164,20.39"/>
<path fill="#42B399" d="M56.162,0H31.915c-4.367,0-7.944,3.534-8.024,7.884h-0.008v0.148v38.549v7.705v1.971h0.001
	c0.016,4.404,3.623,8.004,8.031,8.004h24.247c17.672,0,32.13-14.459,32.13-32.13V32.13C88.292,14.459,73.833,0,56.162,0"/>
<path fill="#0F385A" d="M60.942,23.436v-8.715c0-1.293-1.047-2.342-2.337-2.342h-8.698c-1.291,0-2.337,1.049-2.337,2.342v8.715
	c0,1.293-1.046,2.342-2.337,2.342h-8.698c-1.29,0-2.337,1.048-2.337,2.341v8.715c0,1.293,1.047,2.342,2.337,2.342h8.698
	c1.291,0,2.337,1.047,2.337,2.342v8.713c0,1.295,1.046,2.342,2.337,2.342h8.698c1.29,0,2.337-1.047,2.337-2.342v-8.713
	c0-1.295,1.046-2.342,2.337-2.342h8.697c1.291,0,2.338-1.049,2.338-2.342v-8.715c0-1.293-1.047-2.341-2.338-2.341h-8.697
	C61.988,25.777,60.942,24.729,60.942,23.436"/>
<path fill="#FFFFFF" d="M8.058,64.261L8.058,64.261C3.626,64.261,0,60.634,0,56.205V28.21c0-4.431,3.626-8.056,8.058-8.056
	c4.431,0,8.057,3.625,8.057,8.056v27.995C16.115,60.634,12.489,64.261,8.058,64.261"/>
<path fill="#FFFFFF" d="M16.008,8.098c0,4.421-3.583,8.004-8.004,8.004C3.584,16.102,0,12.519,0,8.098
	c0-4.42,3.584-8.004,8.004-8.004C12.425,0.094,16.008,3.678,16.008,8.098"/>
</svg>
