<?xml version="1.0" encoding="utf-8"?>
<!-- Generator: Adobe Illustrator 16.2.0, SVG Export Plug-In . SVG Version: 6.00 Build 0)  -->
<!DOCTYPE svg PUBLIC "-//W3C//DTD SVG 1.1//EN" "http://www.w3.org/Graphics/SVG/1.1/DTD/svg11.dtd">
<svg version="1.1" id="Layer_1" xmlns="http://www.w3.org/2000/svg" xmlns:xlink="http://www.w3.org/1999/xlink" x="0px" y="0px"
	 width="438px" height="94.029px" viewBox="0 0 438 94.029" enable-background="new 0 0 438 94.029" xml:space="preserve">
<path fill="#42B399" d="M98.126,59.905c0-12.502,10.065-22.651,23.623-22.651c13.476,0,23.461,9.985,23.461,22.651
	c0,12.502-10.066,22.648-23.623,22.648C108.111,82.554,98.126,72.567,98.126,59.905 M133.033,59.905
	c0-6.414-4.627-12.016-11.446-12.016c-7.063,0-11.284,5.439-11.284,12.016c0,6.412,4.626,12.014,11.446,12.014
	C128.812,71.919,133.033,66.479,133.033,59.905"/>
<path fill="#42B399" d="M147.972,59.905c0-12.421,9.498-22.651,22.812-22.651c7.31,0,12.104,2.452,15.934,6.207
	c0.773,0.756,0.796,1.992,0.036,2.76l-4.616,4.668c-0.701,0.709-1.831,0.773-2.599,0.137c-2.273-1.885-4.757-3.137-8.837-3.137
	c-6.169,0-10.553,5.439-10.553,12.016c0,6.656,4.302,12.014,11.041,12.014c3.538,0,6.127-1.305,8.679-3.457
	c0.763-0.643,1.899-0.57,2.6,0.139l4.606,4.656c0.757,0.768,0.735,2-0.034,2.756c-3.93,3.875-8.648,6.541-16.42,6.541
	C157.551,82.554,147.972,72.487,147.972,59.905"/>
<path fill="#42B399" d="M194.409,69.239V50.556c0-1.068-0.867-1.935-1.936-1.935h-1.325c-1.068,0-1.935-0.867-1.935-1.936v-6.682
	c0-1.069,0.867-1.936,1.935-1.936h1.325c1.069,0,1.936-0.867,1.936-1.935V28.88c0-1.069,0.866-1.935,1.936-1.935h8.467
	c1.07,0,1.936,0.866,1.936,1.935v7.251c0,1.068,0.867,1.935,1.935,1.935h6.358c1.069,0,1.935,0.867,1.935,1.936v6.682
	c0,1.069-0.866,1.936-1.935,1.936h-6.358c-1.068,0-1.935,0.867-1.935,1.935V67.21c0,2.842,1.218,4.221,3.977,4.221
	c1.264,0,2.452-0.174,3.564-0.498c1.259-0.365,2.525,0.531,2.525,1.844v5.871c0,0.725-0.402,1.395-1.048,1.725
	c-2.36,1.203-5.098,1.938-8.694,1.938C199.522,82.31,194.409,79.306,194.409,69.239"/>
<path fill="#42B399" d="M218.683,59.905c0-12.502,10.065-22.651,23.623-22.651c13.475,0,23.461,9.985,23.461,22.651
	c0,12.502-10.065,22.648-23.623,22.648C228.668,82.554,218.683,72.567,218.683,59.905 M253.59,59.905
	c0-6.414-4.627-12.016-11.446-12.016c-7.063,0-11.284,5.439-11.284,12.016c0,6.412,4.626,12.014,11.446,12.014
	C249.369,71.919,253.59,66.479,253.59,59.905"/>
<path fill="#42B399" d="M272.575,38.067h8.467c1.069,0,1.937,0.867,1.937,1.936v4.034c0,0.668,0.881,0.886,1.208,0.303
	c2.271-4.039,5.564-6.696,10.617-7.061c1.113-0.08,2.057,0.82,2.057,1.935v10.949h-0.649c-8.199,0-13.232,4.952-13.232,15.342
	v14.139c0,1.068-0.867,1.936-1.937,1.936h-8.467c-1.069,0-1.937-0.867-1.937-1.936V40.003
	C270.639,38.934,271.506,38.067,272.575,38.067"/>
<path fill="#0F385A" d="M302.701,64.329c-4.944,0-8.99,4.047-8.99,8.99c0,4.945,4.046,8.99,8.99,8.99c4.943,0,8.99-4.045,8.99-8.99
	C311.691,68.376,307.645,64.329,302.701,64.329"/>
<path fill="#0F385A" d="M369.692,38.067c-5.091,0-9.145,1.831-12.587,5.225c-0.738,0.728-1.935,0.594-2.557-0.236
	c-2.391-3.195-6.161-4.989-10.917-4.989c-4.276,0-7.354,1.587-9.77,3.764c-1.088,0.98-2.821,0.207-2.821-1.258v-0.016
	c0-0.935-0.758-1.693-1.692-1.693h-8.728c-0.935,0-1.693,0.758-1.693,1.693v39.329c0,0.936,0.759,1.693,1.693,1.693h8.728
	c0.935,0,1.692-0.758,1.692-1.693V57.751c0-5.738,2.79-8.686,7.332-8.686c4.543,0,7.092,2.948,7.092,8.686v22.135
	c0,0.936,0.759,1.693,1.694,1.693h8.727c0.936,0,1.693-0.758,1.693-1.693V57.751c0-5.738,2.789-8.686,7.332-8.686
	s7.093,2.948,7.093,8.686v22.135c0,0.936,0.758,1.693,1.693,1.693h8.726c0.937,0,1.694-0.758,1.694-1.693V53.767
	C384.117,43.486,378.698,38.067,369.692,38.067"/>
<path fill="#0F385A" d="M415.274,38.067c-4.265,0-7.296,1.577-9.687,3.743c-1.087,0.986-2.826,0.215-2.826-1.253
	c0-0.935-0.759-1.693-1.693-1.693h-8.728c-0.934,0-1.692,0.758-1.692,1.693v39.329c0,0.936,0.759,1.693,1.692,1.693h8.728
	c0.935,0,1.693-0.758,1.693-1.693V57.751c0-5.738,2.948-8.686,7.571-8.686c4.622,0,7.332,2.948,7.332,8.686v22.135
	c0,0.936,0.757,1.693,1.693,1.693h8.727c0.936,0,1.693-0.758,1.693-1.693V53.925C429.778,44.124,424.438,38.067,415.274,38.067"/>
<path fill="#42B399" d="M64.272,17.678H40.025c-4.367,0-7.944,3.534-8.024,7.883h-0.008v0.149v38.551v7.703v1.971h0.001
	c0.016,4.404,3.623,8.004,8.031,8.004h24.247c17.672,0,32.13-14.459,32.13-32.131S81.944,17.678,64.272,17.678"/>
<path fill="#FFFFFF" d="M69.053,41.113v-8.714c0-1.294-1.047-2.342-2.337-2.342h-8.698c-1.291,0-2.337,1.048-2.337,2.342v8.714
	c0,1.293-1.046,2.342-2.337,2.342h-8.698c-1.29,0-2.337,1.048-2.337,2.341v8.713c0,1.295,1.047,2.344,2.337,2.344h8.698
	c1.291,0,2.337,1.049,2.337,2.342v8.715c0,1.293,1.046,2.34,2.337,2.34h8.698c1.29,0,2.337-1.047,2.337-2.34v-8.715
	c0-1.293,1.046-2.342,2.337-2.342h8.697c1.291,0,2.338-1.049,2.338-2.344v-8.713c0-1.293-1.047-2.341-2.338-2.341H71.39
	C70.099,43.455,69.053,42.406,69.053,41.113"/>
<path fill="#0F385A" d="M16.169,81.938L16.169,81.938c-4.432,0-8.058-3.625-8.058-8.059V45.887c0-4.431,3.626-8.056,8.058-8.056
	c4.431,0,8.057,3.625,8.057,8.056V73.88C24.226,78.313,20.6,81.938,16.169,81.938"/>
<path fill="#0F385A" d="M24.119,25.775c0,4.42-3.583,8.004-8.004,8.004c-4.42,0-8.004-3.584-8.004-8.004
	c0-4.42,3.584-8.004,8.004-8.004C20.536,17.771,24.119,21.355,24.119,25.775"/>
</svg>
